<?xml version="1.0" encoding="UTF-8" standalone="no"?>
<!-- Generator: Adobe Illustrator 19.1.0, SVG Export Plug-In . SVG Version: 6.00 Build 0)  -->

<svg
   xmlns:dc="http://purl.org/dc/elements/1.1/"
   xmlns:cc="http://creativecommons.org/ns#"
   xmlns:rdf="http://www.w3.org/1999/02/22-rdf-syntax-ns#"
   xmlns:svg="http://www.w3.org/2000/svg"
   xmlns="http://www.w3.org/2000/svg"
   xmlns:sodipodi="http://sodipodi.sourceforge.net/DTD/sodipodi-0.dtd"
   xmlns:inkscape="http://www.inkscape.org/namespaces/inkscape"
   version="1.1"
   id="Layer_1"
   x="0px"
   y="0px"
   viewBox="0 0 614.40997 228.53"
   xml:space="preserve"
   inkscape:version="0.91 r13725"
   sodipodi:docname="Polymon-Logo.svg"
   width="614.40997"
   height="228.53"><metadata
     id="metadata199"><rdf:RDF><cc:Work
         rdf:about=""><dc:format>image/svg+xml</dc:format><dc:type
           rdf:resource="http://purl.org/dc/dcmitype/StillImage" /><dc:title></dc:title></cc:Work></rdf:RDF></metadata><defs
     id="defs197" /><sodipodi:namedview
     pagecolor="#ffffff"
     bordercolor="#666666"
     borderopacity="1"
     objecttolerance="10"
     gridtolerance="10"
     guidetolerance="10"
     inkscape:pageopacity="0"
     inkscape:pageshadow="2"
     inkscape:window-width="1580"
     inkscape:window-height="1157"
     id="namedview195"
     showgrid="false"
     inkscape:zoom="1"
     inkscape:cx="239.24746"
     inkscape:cy="-251.6327"
     inkscape:window-x="0"
     inkscape:window-y="0"
     inkscape:window-maximized="0"
     inkscape:current-layer="Layer_1"
     fit-margin-top="0"
     fit-margin-left="0"
     fit-margin-right="0"
     fit-margin-bottom="0" /><style
     type="text/css"
     id="style3">
  .st0{fill:none;}
  .st1{fill:#09537E;}
  .st2{fill:url(#SVGID_1_);}
  .st3{fill:#00A4FF;}
  .st4{fill:url(#SVGID_2_);}
  .st5{fill:url(#SVGID_3_);}
  .st6{fill:url(#SVGID_4_);}
  .st7{fill:url(#SVGID_5_);}
  .st8{fill:url(#XMLID_4_);}
  .st9{fill:#FDC300;}
  .st10{opacity:0.33;fill:#FF9D00;}
  .st11{opacity:0.33;fill:#F4E07D;}
  .st12{opacity:0.5;fill:#F4E07D;}
  .st13{fill:#C92629;}
  .st14{fill:#EC4236;}
  .st15{fill:#8C0300;}
  .st16{fill:#FFFFFF;}
  .st17{fill:#1CA6FC;}
  .st18{fill:#EAEAEA;}
  .st19{clip-path:url(#SVGID_6_);fill:#FFFFFF;}
  .st20{fill:#09537E;stroke:#09537E;stroke-width:6.4;stroke-miterlimit:10;}
  .st21{fill:url(#XMLID_6_);}
  .st22{fill:#4E6582;}
  .st23{fill:#C42D44;}
  .st24{fill:#040605;}
  .st25{fill:#060606;}
  .st26{fill:#070908;}
  .st27{fill:#0D0C08;}
  .st28{fill:#171612;}
  .st29{fill:#FEFEFE;}
  .st30{fill:#FD9BA7;}
  .st31{fill:#00F7AF;}
  .st32{fill:#00F8AF;}
  .st33{fill:#48AAD1;}
  .st34{fill:#47A9D0;}
  .st35{fill:#FDC646;}
  .st36{fill:#FEC747;}
  .st37{fill:#070504;}
  .st38{fill:#0A0907;}
  .st39{fill:#1D1B13;}
  .st40{fill:#B80000;}
  .st41{fill:#FDD559;}
  .st42{fill:#C2C2C2;}
  .st43{fill:#E49F9F;}
  .st44{fill:#FDD659;}
  .st45{fill:#FCFCFC;}
  .st46{fill:#FAD358;}
  .st47{fill:#B81E00;}
  .st48{fill:#C0C0C0;}
  .st49{fill:#020202;}
  .st50{fill:#070706;}
  .st51{fill:#1A1E1E;}
  .st52{fill:#040302;}
  .st53{fill:#050403;}
  .st54{fill:#0C0B08;}
  .st55{fill:#11150F;}
  .st56{fill:#060605;}
  .st57{fill:#FEE744;}
  .st58{fill:#FDE744;}
  .st59{fill:#F9FDD5;}
  .st60{fill:#F9FDD4;}
  .st61{fill:#44E9FC;}
  .st62{fill:#FBFCFD;}
  .st63{fill:#060404;}
  .st64{fill:#050303;}
  .st65{fill:#070505;}
  .st66{fill:#0F0D0C;}
  .st67{fill:#B12D4B;}
  .st68{fill:#F7B39C;}
  .st69{fill:#B02D4A;}
  .st70{fill:#FEFDFC;}
  .st71{fill:#FBD34F;}
  .st72{fill:#710935;}
  .st73{fill:#870A40;}
  .st74{fill:#B02D65;}
  .st75{fill:#FDD54F;}
  .st76{fill:#020201;}
  .st77{fill:#0E0D0E;}
  .st78{fill:#040405;}
  .st79{fill:#212121;}
  .st80{fill:#FCC5F5;}
  .st81{fill:#3BAAD9;}
  .st82{fill:#AAD4E7;}
  .st83{fill:#FDFEFE;}
  .st84{fill:#FDFDFD;}
  .st85{fill:#A9D3E6;}
  .st86{fill:#87EEB2;}
  .st87{fill:#F8F8F8;}
  .st88{fill:#020404;}
  .st89{fill:#050504;}
  .st90{fill:#040504;}
  .st91{fill:#040403;}
  .st92{fill:#232323;}
  .st93{fill:#0D0E0A;}
  .st94{fill:#CCCCCC;}
  .st95{fill:#FEF778;}
  .st96{fill:#00B995;}
  .st97{fill:#FCF577;}
  .st98{fill:#9FF3D3;}
  .st99{fill:#010101;}
  .st100{fill:#030807;}
  .st101{fill:#030405;}
  .st102{fill:#030303;}
  .st103{fill:#060708;}
  .st104{fill:#090A0A;}
  .st105{fill:#050607;}
  .st106{fill:#0C0C0D;}
  .st107{fill:#141718;}
  .st108{fill:#212526;}
  .st109{fill:#437F97;}
  .st110{fill:#E6DCFC;}
  .st111{fill:#E7DCFD;}
  .st112{fill:#E5DBFB;}
  .st113{fill:#E4D9FA;}
  .st114{fill:#8EE7CA;}
  .st115{fill:#040503;}
  .st116{fill:#060401;}
  .st117{fill:#030504;}
  .st118{fill:#080603;}
  .st119{fill:#050906;}
  .st120{fill:#0A0A08;}
  .st121{fill:#13130D;}
  .st122{fill:#FEA605;}
  .st123{fill:#4BE487;}
  .st124{fill:#FDA605;}
  .st125{fill:#4AE387;}
  .st126{fill:#FDC8C8;}
  .st127{fill:#FAFDB5;}
  .st128{fill:#FCA505;}
  .st129{fill:#060603;}
  .st130{fill:#080605;}
  .st131{fill:#090707;}
  .st132{fill:#0B0808;}
  .st133{fill:#0F0F09;}
  .st134{fill:#1C1B0B;}
  .st135{fill:#030202;}
  .st136{fill:#FE9197;}
  .st137{fill:#E8DA00;}
  .st138{fill:#E7D900;}
  .st139{fill:#F5EF9A;}
  .st140{fill:#131200;}
  .st141{fill:#FED4DA;}
  .st142{fill:#030404;}
  .st143{fill:#161810;}
  .st144{fill:#8E8E8E;}
  .st145{fill:#2F9CFE;}
  .st146{fill:#FDD73D;}
  .st147{fill:#FED73D;}
  .st148{fill:#FDD63C;}
  .st149{fill:#8D8D8D;}
  .st150{fill:#2F9CFD;}
  .st151{fill:#2E9AFA;}
  .st152{fill:#040404;}
  .st153{fill:#110D0D;}
  .st154{fill:#0F3A90;}
  .st155{fill:#FA6CB2;}
  .st156{fill:#FBDB44;}
  .st157{fill:#FCFCFD;}
  .st158{fill:#F8D943;}
  .st159{fill:#FADA43;}
  .st160{fill:#070406;}
  .st161{fill:#030203;}
  .st162{fill:#060706;}
  .st163{fill:#080A08;}
  .st164{fill:#040604;}
  .st165{fill:#140F0F;}
  .st166{fill:#2A874A;}
  .st167{fill:#161B15;}
  .st168{fill:#232822;}
  .st169{fill:#91DF86;}
  .st170{fill:#EBFEDD;}
  .st171{fill:#E8FBDB;}
  .st172{fill:#EAFDDC;}
  .st173{fill:#FD9D9D;}
  .st174{fill:#FC8686;}
  .st175{fill:#FDC3C3;}
  .st176{fill:#1C1C1C;}
  .st177{fill:#131210;}
  .st178{fill:#FE7535;}
  .st179{fill:#FE7635;}
  .st180{fill:#A8F6FE;}
  .st181{fill:#FEBA99;}
  .st182{fill:#A8F5FD;}
  .st183{fill:#FDDBCB;}
  .st184{fill:#FDCBB3;}
  .st185{fill:#FEFDFD;}
  .st186{fill:#45D8E9;}
  .st187{fill:#0C0C0A;}
  .st188{fill:#49DAEB;}
  .st189{fill:#130C0B;}
  .st190{fill:#FD5E4A;}
  .st191{fill:#FD5E49;}
  .st192{fill:#C7F1FD;}
  .st193{fill:#C8F1FD;}
  .st194{fill:#C8F2FE;}
  .st195{fill:#C8F2FD;}
  .st196{fill:#FDFDFC;}
  .st197{fill:#B52B1A;}
  .st198{fill:#B82C1A;}
  .st199{fill:#BA2D1B;}
  .st200{fill:#0D1010;}
  .st201{fill:#93DAE7;}
  .st202{fill:#54C5D9;}
  .st203{fill:#FDD9BA;}
  .st204{fill:#ECB98D;}
  .st205{fill:#FBD8BA;}
  .st206{fill:#FAD7B9;}
  .st207{fill:#93D7E3;}
  .st208{fill:#F4D3B6;}
  .st209{fill:#030201;}
  .st210{fill:#100D02;}
  .st211{fill:#FCF527;}
  .st212{fill:#FB8B00;}
  .st213{fill:#FCF427;}
  .st214{fill:#FB8A00;}
  .st215{fill:#E42B16;}
  .st216{fill:#FAF227;}
  .st217{fill:#E35416;}
  .st218{fill:#080501;}
  .st219{fill:#FEA32A;}
  .st220{fill:#2AC2FE;}
  .st221{fill:#2AC2FD;}
  .st222{fill:#29BFFA;}
  .st223{fill:#FDA32A;}
  .st224{fill:#101010;}
  .st225{fill:#535353;}
  .st226{fill:#FEE300;}
  .st227{fill:#989898;}
  .st228{fill:#525252;}
  .st229{fill:#080B08;}
  .st230{fill:#0C100D;}
  .st231{fill:#121412;}
  .st232{fill:#1A221E;}
  .st233{fill:#2C3130;}
  .st234{fill:#41B56E;}
  .st235{fill:#B5FEEC;}
  .st236{fill:#41B56F;}
  .st237{fill:#B5FDEB;}
  .st238{fill:#CAAFE6;}
  .st239{fill:#E2E4AE;}
  .st240{fill:#5B2098;}
  .st241{fill:#040303;}
  .st242{fill:#070302;}
  .st243{fill:#0A0403;}
  .st244{fill:#160E0E;}
  .st245{fill:#242221;}
  .st246{fill:#663B00;}
  .st247{fill:#C42D45;}
  .st248{fill:#653B00;}
  .st249{fill:#673B01;}
  .st250{fill:#C32D44;}
  .st251{fill:#ECCCC1;}
  .st252{fill:#4D69A0;}
  .st253{fill:#040505;}
  .st254{fill:#060607;}
  .st255{fill:#101012;}
  .st256{fill:#373739;}
  .st257{fill:#19191A;}
  .st258{fill:#DBDDF8;}
  .st259{fill:#9AD5EE;}
  .st260{fill:#9AD4ED;}
  .st261{fill:#653700;}
  .st262{fill:#060602;}
  .st263{fill:#0C0D0A;}
  .st264{fill:#0A0B08;}
  .st265{fill:#14100C;}
  .st266{fill:#1D1D1D;}
  .st267{fill:#2F2C27;}
  .st268{fill:#ADADAD;}
  .st269{fill:#154B06;}
  .st270{fill:#895211;}
  .st271{fill:#CDBE83;}
  .st272{fill:#1F753C;}
  .st273{fill:#030302;}
  .st274{fill:#020203;}
  .st275{fill:#191919;}
  .st276{fill:#222025;}
  .st277{fill:#0D0D0D;}
  .st278{fill:#D3BEFE;}
  .st279{fill:#D3BEFD;}
  .st280{fill:#D5D5D5;}
  .st281{fill:#BFFDBE;}
  .st282{fill:#FBFBFB;}
  .st283{fill:#D4D4D4;}
  .st284{fill:#FCFBFE;}
  .st285{fill:#050506;}
  .st286{fill:#070809;}
  .st287{fill:#131417;}
  .st288{fill:#18191B;}
  .st289{fill:#1F1F1F;}
  .st290{fill:#BCC7FE;}
  .st291{fill:#8A8A8A;}
  .st292{fill:#BCC7FD;}
  .st293{fill:#060505;}
  .st294{fill:#050404;}
  .st295{fill:#110C0D;}
  .st296{fill:#261F20;}
  .st297{fill:#ED6E83;}
  .st298{fill:#CEEDF6;}
  .st299{fill:#ED6F83;}
  .st300{fill:#EC6E83;}
  .st301{fill:#F7ACD1;}
  .st302{fill:#CDECF4;}
  .st303{fill:#080909;}
  .st304{fill:#070808;}
  .st305{fill:#0A0B0B;}
  .st306{fill:#0C0D0E;}
  .st307{fill:#111313;}
  .st308{fill:#17191A;}
  .st309{fill:#232729;}
  .st310{fill:#DAF4FD;}
  .st311{fill:#8DA2BC;}
  .st312{fill:#356F80;}
  .st313{fill:#DAF5FE;}
  .st314{fill:#92F7FD;}
  .st315{fill:#020303;}
  .st316{fill:#050304;}
  .st317{fill:#070405;}
  .st318{fill:#100B0C;}
  .st319{fill:#171011;}
  .st320{fill:#0A0607;}
  .st321{fill:#1E1918;}
  .st322{fill:#ECE9D5;}
  .st323{fill:#BC5069;}
  .st324{fill:#BC4F69;}
  .st325{fill:#983D62;}
  .st326{fill:#983D61;}
  .st327{fill:#EBE8D4;}
  .st328{fill:#087812;}
  .st329{fill:#060604;}
  .st330{fill:#090907;}
  .st331{fill:#080C09;}
  .st332{fill:#13110F;}
  .st333{fill:#211D18;}
  .st334{fill:#5B380D;}
  .st335{fill:#E4B984;}
  .st336{fill:#86500D;}
  .st337{fill:#3E2202;}
  .st338{fill:#BB7726;}
  .st339{fill:#E4B884;}
  .st340{fill:#050508;}
  .st341{fill:#060609;}
  .st342{fill:#0F0F11;}
  .st343{fill:#1B1C1E;}
  .st344{fill:#BEC4EF;}
  .st345{fill:#D7DBF4;}
  .st346{fill:#030CDA;}
  .st347{fill:#D8DCF5;}
  .st348{fill:#BEC4EE;}
  .st349{fill:#050511;}
  .st350{fill:#090A08;}
  .st351{fill:#151512;}
  .st352{fill:#2C6577;}
  .st353{fill:#2C6578;}
  .st354{fill:#FCFECA;}
  .st355{fill:#2C6477;}
  .st356{fill:#FBFDCA;}
  .st357{fill:#A7FD70;}
  .st358{fill:#FBFDC9;}
  .st359{fill:#A5FB6F;}
  .st360{fill:#010102;}
  .st361{fill:#0F0F0F;}
  .st362{fill:#46468E;}
  .st363{fill:#47478E;}
  .st364{fill:#18BCB2;}
  .st365{fill:#18BBB1;}
  .st366{fill:#47478F;}
  .st367{fill:#FAFAFB;}
  .st368{fill:#F1D849;}
  .st369{fill:#F4DB4A;}
  .st370{fill:#070605;}
  .st371{fill:#6208A0;}
  .st372{fill:#14A22B;}
  .st373{fill:#B060E8;}
  .st374{fill:#AE025B;}
  .st375{fill:#B060E7;}
  .st376{fill:#FDFDFE;}
  .st377{fill:#010002;}
  .st378{fill:#FDFCFD;}
  .st379{fill:#050406;}
  .st380{fill:#FCFBFD;}
  .st381{fill:#63420D;}
  .st382{fill:#D9F5FE;}
  .st383{fill:#CAF1FE;}
  .st384{fill:#62420D;}
  .st385{fill:#E96000;}
  .st386{fill:#BADEE5;}
  .st387{fill:#FDF398;}
  .st388{fill:#839DA5;}
  .st389{fill:#7C9499;}
  .st390{fill:#A0AEA5;}
  .st391{fill:#818181;}
  .st392{fill:#070604;}
  .st393{fill:#080705;}
  .st394{fill:#130C07;}
  .st395{fill:#191813;}
  .st396{fill:#271008;}
  .st397{fill:#2D2A20;}
  .st398{fill:#FEE673;}
  .st399{fill:#FDE573;}
  .st400{fill:#C9001E;}
  .st401{fill:#3E991F;}
  .st402{fill:#DE7C00;}
  .st403{fill:#FDE673;}
  .st404{fill:#050605;}
  .st405{fill:#0C0C0C;}
  .st406{fill:#D6D6D6;}
  .st407{fill:#01C692;}
  .st408{fill:#00C691;}
  .st409{fill:#FED9F4;}
  .st410{fill:#03C692;}
  .st411{fill:#110C0C;}
  .st412{fill:#A17B4F;}
  .st413{fill:#D7151E;}
  .st414{fill:#F3E72B;}
  .st415{fill:#FCC48E;}
  .st416{fill:#030304;}
  .st417{fill:#654CE7;}
  .st418{fill:#35FEFB;}
  .st419{fill:#35FDFA;}
  .st420{fill:#FCFDFD;}
  .st421{fill:#090D0E;}
  .st422{fill:#010202;}
  .st423{fill:#050606;}
  .st424{fill:#B7A9FE;}
  .st425{fill:#FDAF94;}
  .st426{fill:#100F0D;}
  .st427{fill:#090706;}
  .st428{fill:#1F1E1C;}
  .st429{fill:#FEAF94;}
  .st430{fill:#FEF8C6;}
  .st431{fill:#FDF7C6;}
  .st432{fill:#FDD5C8;}
  .st433{fill:#C4EEFB;}
  .st434{fill:#C6F0FD;}
  .st435{fill:#030403;}
  .st436{fill:#161610;}
  .st437{fill:#3AB99F;}
  .st438{fill:#F6C6B1;}
  .st439{fill:#FEFC9D;}
  .st440{fill:#FDFB9D;}
  .st441{fill:#D2D2D2;}
  .st442{fill:#F5C6B1;}
  .st443{fill:#FEFEFD;}
  .st444{fill:#231F20;}
  .st445{fill:#FDCA80;}
  .st446{fill:#ED3624;}
  .st447{fill:#E97524;}
  .st448{fill:#FFF2E5;}
  .st449{fill:#C22026;}
  .st450{fill:#049F4C;}
  .st451{fill:#BFE7FA;}
  .st452{fill:#D48928;}
  .st453{fill:#FBAF23;}
  .st454{fill:#72BE44;}
  .st455{fill:#F26B21;}
  .st456{fill:#D33627;}
  .st457{fill:#FAE7C7;}
  .st458{fill:#57C9F3;}
  .st459{fill:#D45E27;}
  .st460{fill:#DBAD89;}
  .st461{fill:#C53727;}
  .st462{fill:#FCEBEF;}
  .st463{fill:#EAACAC;}
  .st464{fill:#D8EFF7;}
  .st465{fill:#4863AD;}
  .st466{fill:#FCB637;}
  .st467{fill:#E58725;}
  .st468{fill:#F1DA9C;}
  .st469{fill:#DF9626;}
  .st470{fill:#6ABC45;}
  .st471{fill:#FED5C2;}
  .st472{fill:#FEE6DF;}
  .st473{fill:#ECB4A2;}
  .st474{fill:#EAB3A1;}
  .st475{fill:#0B0A09;}
  .st476{fill:#FDE5DE;}
  .st477{fill:#090807;}
  .st478{fill:#54453C;}
  .st479{fill:#5A4941;}
  .st480{fill:#524940;}
  .st481{fill:#675E52;}
  .st482{fill:#6B5D54;}
  .st483{fill:#8E7A6F;}
  .st484{fill:#807B66;}
  .st485{fill:#A59A86;}
  .st486{fill:#8DC73E;}
  .st487{fill:#78BF41;}
  .st488{fill:#AAD03D;}
  .st489{display:none;}
  .st490{display:inline;}
  .st491{clip-path:url(#SVGID_7_);}
  .st492{clip-path:url(#SVGID_8_);}
  .st493{clip-path:url(#SVGID_9_);}
  .st494{clip-path:url(#surface_1_);}
  .st495{clip-path:url(#surface_2_);fill:#78BF41;}
  .st496{fill:#756963;}
  .st497{fill:#7D706A;}
  .st498{fill:#958E85;}
  .st499{fill:#756E68;}
  .st500{fill:#C9BAB1;}
  .st501{fill:#BCB8A8;}
  .st502{fill:#F0E8D9;}
  .st503{fill:#DFF5A4;}
  .st504{fill:#CCF1A3;}
  .st505{fill:#F9F9A7;}
</style><g
     id="Layer_8"
     transform="translate(-13.6,-905.6)"><g
       id="g6"><polygon
         class="st0"
         points="337.2,955.27 285.65,955.27 311.44,1015.97 "
         id="polygon8"
         style="fill:none" /><polygon
         class="st0"
         points="385.23,1033.95 352.5,1001.22 338.65,1033.95 339.38,1033.95 344.9,1033.95 "
         id="polygon10"
         style="fill:none" /><polygon
         class="st0"
         points="344.9,1050.94 331.45,1050.94 330.85,1052.36 339.38,1052.36 344.9,1052.36 416.71,1052.36 416.71,1050.92 344.9,1050.78 "
         id="polygon12"
         style="fill:none" /><polygon
         class="st0"
         points="416.71,1007.01 389.77,1033.95 416.71,1033.95 "
         id="polygon14"
         style="fill:none" /><path
         class="st0"
         d="m 146.28,1014.11 0,-15.03 c -0.56,-0.03 -1.11,-0.07 -1.69,-0.07 -7.21,0 -13.06,2.41 -17.53,7.21 -2.58,2.78 -4.4,6.04 -5.49,9.74 1.07,3.84 2.82,7.13 5.32,9.85 4.47,4.81 10.37,7.21 17.7,7.21 0.58,0 1.13,-0.04 1.69,-0.07 l 0,-16.66 0,-2.18 z"
         id="path16"
         inkscape:connector-curvature="0"
         style="fill:none" /><path
         class="st0"
         d="m 495.46,1048.36 c -3.8,1.02 -7.82,1.54 -12.08,1.54 -4.34,0 -8.44,-0.54 -12.32,-1.6 3.52,1.97 7.62,2.97 12.32,2.97 4.58,0 8.6,-0.98 12.08,-2.91 z"
         id="path18"
         inkscape:connector-curvature="0"
         style="fill:none" /><path
         class="st0"
         d="m 157.67,1048.06 c -4.19,1.22 -8.66,1.83 -13.41,1.83 -4.33,0 -8.4,-0.53 -12.23,-1.58 3.58,2.07 7.76,3.13 12.57,3.13 5.06,0 9.4,-1.15 13.07,-3.38 z"
         id="path20"
         inkscape:connector-curvature="0"
         style="fill:none" /><path
         class="st0"
         d="m 47.85,986.97 -4.62,0 0,18.68 5.46,0 c 11.96,0 19.55,-3.12 22.96,-9.44 -3.5,-6.19 -11.36,-9.24 -23.8,-9.24 z"
         id="path22"
         inkscape:connector-curvature="0"
         style="fill:none" /><polygon
         class="st0"
         points="291.44,1050.94 211.25,1050.94 211.25,1052.36 292.04,1052.36 "
         id="polygon24"
         style="fill:none" /><path
         class="st0"
         d="m 156.91,983.57 c -3.52,-1.97 -7.62,-2.97 -12.32,-2.97 -4.58,0 -8.6,0.98 -12.08,2.92 3.8,-1.02 7.82,-1.54 12.08,-1.54 4.35,0 8.45,0.54 12.32,1.59 z"
         id="path26"
         inkscape:connector-curvature="0"
         style="fill:none" /><path
         class="st0"
         d="m 495.95,983.56 c -3.58,-2.07 -7.76,-3.13 -12.57,-3.13 -5.06,0 -9.41,1.15 -13.08,3.38 4.19,-1.22 8.65,-1.83 13.41,-1.83 4.33,0 8.41,0.53 12.24,1.58 z"
         id="path28"
         inkscape:connector-curvature="0"
         style="fill:none" /><path
         class="st0"
         d="m 483.38,998.84 c -0.58,0 -1.13,0.04 -1.69,0.07 l 0,15.65 0,2.19 0,16.05 c 0.56,0.03 1.11,0.07 1.69,0.07 7.21,0 13.06,-2.41 17.53,-7.21 2.58,-2.78 4.4,-6.04 5.49,-9.74 -1.07,-3.84 -2.82,-7.13 -5.32,-9.85 -4.47,-4.83 -10.37,-7.23 -17.7,-7.23 z"
         id="path30"
         inkscape:connector-curvature="0"
         style="fill:none" /><g
         id="g32"><path
           class="st1"
           d="m 503.32,1016.76 c -0.94,-3.37 -2.48,-6.25 -4.59,-8.54 -3.86,-4.15 -8.89,-6.18 -15.34,-6.18 -0.39,0 -0.77,0.02 -1.15,0.04 l -3.74,0.2 0,-2.93 -22.32,0 1.42,-4.22 c 1.25,-3.71 3.18,-6.99 5.74,-9.75 1.53,-1.64 3.31,-3.09 5.3,-4.3 l 0.36,-0.22 0.41,-0.12 c 4.47,-1.3 9.28,-1.96 14.31,-1.96 4.56,0 8.96,0.57 13.08,1.7 l 0.4,0.11 0.36,0.21 c 2.19,1.27 4.16,2.84 5.87,4.68 4.92,5.36 7.4,12.6 7.4,21.56 0,3.44 -0.46,6.73 -1.35,9.78 l -3.16,10.72 -3,-10.78 z"
           id="path34"
           inkscape:connector-curvature="0"
           style="fill:#09537e" /><path
           class="st1"
           d="m 483.72,981.98 c 4.33,0 8.4,0.53 12.23,1.58 1.87,1.08 3.59,2.43 5.13,4.09 4.36,4.75 6.54,11.21 6.54,19.38 0,3.21 -0.42,6.16 -1.22,8.88 -1.07,-3.84 -2.82,-7.13 -5.32,-9.85 -4.47,-4.81 -10.37,-7.21 -17.7,-7.21 -0.58,0 -1.13,0.04 -1.69,0.07 l 0,-2.76 -21.07,0 c 1.1,-3.28 2.79,-6.15 5.05,-8.59 1.39,-1.49 2.94,-2.73 4.62,-3.75 4.2,-1.23 8.67,-1.84 13.43,-1.84 m 0,-6.4 c -5.32,0 -10.44,0.7 -15.2,2.09 l -0.82,0.24 -0.73,0.44 c -2.24,1.37 -4.25,3 -5.98,4.86 -2.88,3.09 -5.04,6.76 -6.43,10.91 l -2.84,8.44 8.9,0 14.67,0 0,3.1 6.73,-0.35 0.4,-0.02 c 0.37,-0.02 0.69,-0.04 0.96,-0.04 5.52,0 9.78,1.69 13.01,5.17 1.76,1.92 3.03,4.29 3.84,7.21 l 5.99,21.53 6.31,-21.44 c 0.98,-3.35 1.48,-6.94 1.48,-10.69 0,-9.78 -2.77,-17.76 -8.23,-23.71 -1.95,-2.1 -4.18,-3.87 -6.64,-5.3 l -0.72,-0.42 -0.8,-0.22 c -4.37,-1.19 -9.06,-1.8 -13.9,-1.8 l 0,0 z"
           id="path36"
           inkscape:connector-curvature="0"
           style="fill:#09537e" /></g><g
         id="g38"><path
           class="st1"
           d="m 481.52,1035.99 c -7.4,-0.4 -13.51,-3.14 -18.18,-8.16 -2.64,-2.84 -4.61,-6.24 -5.86,-10.1 l -1.35,-4.18 28.76,0 0,22.62 -3.37,-0.18 z"
           id="path40"
           inkscape:connector-curvature="0"
           style="fill:#09537e" /><path
           class="st1"
           d="m 481.69,1016.75 0,16.05 c -6.54,-0.35 -11.89,-2.71 -16.01,-7.14 -2.34,-2.52 -4.05,-5.49 -5.16,-8.9 l 21.17,0 m 6.4,-6.41 -6.4,0 -21.17,0 -8.79,0 2.7,8.36 c 1.39,4.31 3.59,8.11 6.56,11.29 5.26,5.65 12.11,8.74 20.36,9.18 l 6.74,0.36 0,-6.75 0,-16.05 0,-6.39 0,0 z"
           id="path42"
           inkscape:connector-curvature="0"
           style="fill:#09537e" /></g><g
         id="g44"><path
           class="st1"
           d="m 483.38,1071.5 c -13,0 -24.2,-4.51 -33.28,-13.41 -8.99,-8.93 -13.54,-20.03 -13.54,-32.99 0,-3.38 0.32,-6.69 0.94,-9.84 l 3.13,-15.86 3.14,15.85 c 1.5,7.54 5.14,14.23 10.82,19.87 5.03,4.93 10.86,8.33 17.31,10.09 l 0.38,0.1 0.34,0.19 c 3.04,1.7 6.66,2.57 10.75,2.57 3.99,0 7.53,-0.84 10.52,-2.51 l 0.35,-0.19 0.38,-0.1 c 6.49,-1.74 12.33,-5.12 17.38,-10.07 5.73,-5.62 9.4,-12.2 10.89,-19.56 l 3.23,-15.86 3.05,15.89 c 0.62,3.23 0.94,6.63 0.94,10.1 0,12.64 -4.58,23.54 -13.63,32.4 -9.01,8.85 -20.15,13.33 -33.1,13.33 z"
           id="path46"
           inkscape:connector-curvature="0"
           style="fill:#09537e" /><path
           class="st1"
           d="m 440.64,1015.87 c 1.63,8.2 5.52,15.38 11.7,21.52 5.47,5.37 11.72,8.99 18.72,10.9 3.52,1.97 7.62,2.97 12.32,2.97 4.58,0 8.6,-0.98 12.08,-2.92 7.04,-1.88 13.31,-5.5 18.79,-10.88 6.23,-6.11 10.16,-13.18 11.79,-21.2 0.58,3.02 0.88,6.18 0.88,9.49 0,11.8 -4.22,21.84 -12.67,30.12 -8.44,8.28 -18.73,12.42 -30.87,12.42 -12.19,0 -22.54,-4.17 -31.04,-12.5 -8.39,-8.33 -12.58,-18.57 -12.58,-30.7 0,-3.2 0.3,-6.28 0.88,-9.22 m -0.01,-32.95 -6.27,31.71 c -0.66,3.36 -1,6.88 -1,10.47 0,13.85 4.87,25.7 14.47,35.24 9.73,9.54 21.68,14.36 35.55,14.36 13.81,0 25.71,-4.79 35.35,-14.24 9.68,-9.49 14.59,-21.16 14.59,-34.69 0,-3.67 -0.33,-7.27 -0.99,-10.7 l -6.1,-31.78 -6.45,31.71 c -1.39,6.82 -4.66,12.67 -10,17.91 -4.71,4.62 -9.94,7.65 -15.97,9.27 l -0.77,0.21 -0.69,0.39 c -2.54,1.42 -5.47,2.11 -8.96,2.11 -3.59,0 -6.6,-0.71 -9.19,-2.16 l -0.69,-0.38 -0.76,-0.21 c -6,-1.64 -11.21,-4.68 -15.93,-9.3 -5.27,-5.23 -8.52,-11.19 -9.91,-18.2 l -6.28,-31.72 0,0 z"
           id="path48"
           inkscape:connector-curvature="0"
           style="fill:#09537e" /></g><g
         id="g50"><path
           class="st1"
           d="m 144.26,1071.5 c -13.08,0 -24.2,-4.55 -33.07,-13.54 -8.85,-8.84 -13.34,-20.1 -13.34,-33.45 0,-3.27 0.32,-6.48 0.94,-9.55 l 3.23,-15.85 3.05,15.89 c 1.48,7.72 5.07,14.46 10.66,20.05 4.93,5 10.69,8.42 17.13,10.18 l 0.4,0.11 0.36,0.21 c 3.09,1.79 6.78,2.7 10.97,2.7 4.4,0 8.24,-0.98 11.41,-2.91 l 0.36,-0.22 0.41,-0.12 c 6.16,-1.79 11.73,-5.07 16.55,-9.73 5.71,-5.6 9.37,-12.29 10.87,-19.88 l 3.13,-15.85 3.14,15.85 c 0.62,3.15 0.94,6.44 0.94,9.8 0,13.08 -4.58,24.21 -13.63,33.07 -9.07,8.79 -20.35,13.24 -33.51,13.24 z"
           id="path52"
           inkscape:connector-curvature="0"
           style="fill:#09537e" /><path
           class="st1"
           d="m 101.93,1015.6 c 1.61,8.39 5.45,15.63 11.54,21.71 5.35,5.43 11.54,9.08 18.55,11 3.58,2.07 7.76,3.13 12.57,3.13 5.06,0 9.41,-1.15 13.08,-3.38 6.69,-1.95 12.65,-5.44 17.88,-10.5 6.23,-6.11 10.15,-13.3 11.79,-21.56 0.58,2.93 0.88,5.99 0.88,9.18 0,12.25 -4.22,22.51 -12.67,30.79 -8.5,8.22 -18.93,12.33 -31.29,12.33 -12.25,0 -22.51,-4.19 -30.79,-12.58 -8.28,-8.28 -12.42,-18.68 -12.42,-31.21 0.01,-3.09 0.3,-6.06 0.88,-8.91 m 0.19,-32.99 -6.45,31.71 c -0.67,3.28 -1.01,6.71 -1.01,10.19 0,14.23 4.81,26.25 14.29,35.73 9.45,9.58 21.35,14.46 35.31,14.46 14.02,0 26.04,-4.75 35.74,-14.13 9.71,-9.52 14.62,-21.41 14.62,-35.39 0,-3.57 -0.34,-7.07 -1,-10.43 l -6.29,-31.71 -6.27,31.71 c -1.39,7.05 -4.66,13.01 -9.99,18.23 -4.47,4.33 -9.45,7.25 -15.19,8.92 l -0.82,0.24 -0.73,0.44 c -2.7,1.65 -5.89,2.45 -9.75,2.45 -3.66,0 -6.73,-0.74 -9.36,-2.27 l -0.72,-0.42 -0.8,-0.22 c -5.98,-1.63 -11.11,-4.68 -15.68,-9.32 -5.23,-5.23 -8.43,-11.25 -9.81,-18.42 l -6.09,-31.77 0,0 z"
           id="path54"
           inkscape:connector-curvature="0"
           style="fill:#09537e" /></g><g
         id="g56"><path
           class="st1"
           d="m 143.08,1013.1 28.86,0 -1.2,4.1 c -1.22,4.18 -3.28,7.84 -6.1,10.88 -4.62,4.97 -10.74,7.69 -18.19,8.08 l -3.37,0.18 0,-23.24 z"
           id="path58"
           inkscape:connector-curvature="0"
           style="fill:#09537e" /><path
           class="st1"
           d="m 167.67,1016.3 c -1.09,3.71 -2.88,6.91 -5.38,9.6 -4.07,4.38 -9.42,6.72 -16.01,7.06 l 0,-16.66 21.39,0 m 8.54,-6.4 -8.54,0 -21.39,0 -6.4,0 0,6.4 0,16.66 0,6.74 6.73,-0.35 c 8.31,-0.43 15.16,-3.49 20.37,-9.1 3.17,-3.41 5.47,-7.5 6.83,-12.16 l 2.4,-8.19 0,0 z"
           id="path60"
           inkscape:connector-curvature="0"
           style="fill:#09537e" /></g><g
         id="g62"><path
           class="st1"
           d="m 118.49,1016.83 c -0.89,-3.2 -1.34,-6.69 -1.34,-10.39 0,-8.41 2.55,-15.4 7.57,-20.8 1.84,-1.98 3.94,-3.63 6.24,-4.91 l 0.35,-0.19 0.38,-0.1 c 4.08,-1.09 8.42,-1.65 12.91,-1.65 4.58,0 9.01,0.57 13.16,1.71 l 0.38,0.1 0.34,0.19 c 2.28,1.28 4.36,2.91 6.16,4.85 2.38,2.56 4.22,5.58 5.47,8.96 l 1.59,4.31 -22.21,0 0,3.54 -3.75,-0.2 c -0.37,-0.02 -0.75,-0.04 -1.13,-0.04 -6.34,0 -11.31,2.03 -15.19,6.19 -2.2,2.37 -3.8,5.22 -4.76,8.47 l -3.16,10.72 -3.01,-10.76 z"
           id="path64"
           inkscape:connector-curvature="0"
           style="fill:#09537e" /><path
           class="st1"
           d="m 144.59,981.98 c 4.34,0 8.44,0.54 12.32,1.6 1.98,1.11 3.78,2.51 5.38,4.24 2.11,2.27 3.7,4.9 4.81,7.89 l -20.82,0 0,3.37 c -0.56,-0.03 -1.11,-0.07 -1.69,-0.07 -7.21,0 -13.06,2.41 -17.53,7.21 -2.58,2.78 -4.4,6.04 -5.49,9.74 -0.8,-2.87 -1.22,-6.03 -1.22,-9.53 0,-7.61 2.24,-13.81 6.71,-18.62 1.63,-1.76 3.45,-3.18 5.45,-4.3 3.81,-1.01 7.83,-1.53 12.08,-1.53 m 0,-6.4 c -4.76,0 -9.38,0.59 -13.73,1.76 l -0.77,0.21 -0.69,0.39 c -2.59,1.45 -4.95,3.31 -7.02,5.53 -5.59,6.01 -8.43,13.74 -8.43,22.98 0,3.99 0.49,7.77 1.46,11.24 l 5.99,21.53 6.31,-21.44 c 0.83,-2.81 2.15,-5.16 4.03,-7.19 3.24,-3.48 7.44,-5.17 12.85,-5.17 0.27,0 0.59,0.02 0.95,0.04 l 0.39,0.02 6.74,0.36 0,-3.72 14.42,0 9.18,0 -3.17,-8.61 c -1.4,-3.79 -3.46,-7.16 -6.12,-10.03 -2.04,-2.19 -4.37,-4.03 -6.94,-5.47 l -0.69,-0.38 -0.76,-0.21 c -4.42,-1.23 -9.13,-1.84 -14,-1.84 l 0,0 z"
           id="path66"
           inkscape:connector-curvature="0"
           style="fill:#09537e" /></g><g
         id="g68"><polygon
           class="st1"
           points="286.61,1047.74 302.21,1047.74 302.21,1072.55 191.07,1072.55 191.07,1047.74 214.45,1047.74 214.45,1049.16 287.21,1049.16 "
           id="polygon70"
           style="fill:#09537e" /><path
           class="st1"
           d="m 299.01,1050.94 0,18.41 -104.74,0 0,-18.41 16.98,0 0,1.42 80.79,0 -0.6,-1.42 7.57,0 m 6.4,-6.4 -6.4,0 -7.58,0 -9.66,0 0.6,1.42 -64.73,0 0,-1.42 -6.4,0 -16.98,0 -6.4,0 0,6.4 0,18.41 0,6.4 6.4,0 104.75,0 6.4,0 0,-6.4 0,-18.41 0,-6.4 0,0 z"
           id="path72"
           inkscape:connector-curvature="0"
           style="fill:#09537e" /></g><g
         id="g74"><polygon
           class="st1"
           points="272.99,933.66 349.85,933.66 339.32,958.47 283.53,958.47 "
           id="polygon76"
           style="fill:#09537e" /><path
           class="st1"
           d="m 345.01,936.86 -7.81,18.41 -51.55,0 -7.82,-18.41 67.18,0 m 9.67,-6.4 -9.67,0 -67.19,0 -9.67,0 3.78,8.9 7.82,18.41 1.66,3.9 4.23,0 51.55,0 4.24,0 1.66,-3.9 7.81,-18.41 3.78,-8.9 0,0 z"
           id="path78"
           inkscape:connector-curvature="0"
           style="fill:#09537e" /></g><g
         id="g80"><polygon
           class="st1"
           points="320.68,1047.74 336.29,1047.74 335.68,1049.16 413.51,1049.16 413.51,1047.71 436.89,1047.76 436.89,1072.57 348.1,1072.4 348.1,1072.55 320.68,1072.55 "
           id="polygon82"
           style="fill:#09537e" /><path
           class="st1"
           d="m 416.71,1050.92 16.98,0.03 0,18.41 -88.79,-0.17 0,0.16 -21.03,0 0,-18.41 7.58,0 -0.6,1.42 8.53,0 5.52,0 71.8,0 0,-1.44 m -6.39,-6.41 0,1.45 -65.4,0 -4.39,0 0.6,-1.42 -9.66,0 -7.58,0 -6.4,0 0,6.4 0,18.41 0,6.4 6.4,0 21.03,0 6.4,0 0,-0.14 82.37,0.16 6.41,0.01 0,-6.41 0,-18.41 0,-6.39 -6.39,-0.01 -16.98,-0.03 -6.41,-0.02 0,0 z"
           id="path84"
           inkscape:connector-curvature="0"
           style="fill:#09537e" /></g><g
         id="g86"><polygon
           class="st1"
           points="351.41,977.2 387.5,1013.29 419.91,980.88 419.91,1008.34 391.09,1037.15 383.91,1037.15 353.6,1006.84 340.77,1037.15 326.02,1037.15 "
           id="polygon88"
           style="fill:#09537e" /><path
           class="st1"
           d="m 352.5,982.82 35,35 29.21,-29.21 0,18.41 -26.94,26.94 -4.53,0 -32.73,-32.73 -13.86,32.73 -7.79,0 21.64,-51.14 m -2.19,-11.24 -3.7,8.75 -21.65,51.14 -3.77,8.9 9.66,0 7.79,0 4.24,0 1.65,-3.9 10.15,-23.98 26.01,26.01 1.87,1.87 2.65,0 4.53,0 2.65,0 1.87,-1.87 26.94,-26.94 1.87,-1.87 0,-2.65 0,-18.41 0,-15.45 -10.93,10.93 -24.68,24.68 -30.47,-30.47 -6.68,-6.74 0,0 z"
           id="path90"
           inkscape:connector-curvature="0"
           style="fill:#09537e" /></g><g
         id="g92"><polygon
           class="st1"
           points="372.58,927.21 387.32,927.21 366.2,977.09 355.84,966.73 "
           id="polygon94"
           style="fill:#09537e" /><path
           class="st1"
           d="m 382.49,930.41 -17.38,41.06 -5.48,-5.48 15.07,-35.58 7.79,0 m 9.66,-6.4 -9.66,0 -7.79,0 -4.24,0 -1.65,3.9 -15.07,35.58 -1.68,3.97 3.05,3.05 5.48,5.48 6.72,6.72 3.7,-8.75 17.38,-41.06 3.76,-8.89 0,0 z"
           id="path96"
           inkscape:connector-curvature="0"
           style="fill:#09537e" /></g><g
         id="g98"><rect
           x="295.81"
           y="1106.12"
           class="st1"
           width="31.26"
           height="24.809999"
           id="rect100"
           style="fill:#09537e" /><path
           class="st1"
           d="m 323.88,1109.32 0,18.41 -24.86,0 0,-18.41 24.86,0 m 6.4,-6.4 -6.4,0 -24.86,0 -6.4,0 0,6.4 0,18.41 0,6.4 6.4,0 24.86,0 6.4,0 0,-6.4 0,-18.41 0,-6.4 0,0 z"
           id="path102"
           inkscape:connector-curvature="0"
           style="fill:#09537e" /></g><g
         id="g104"><polygon
           class="st1"
           points="235.57,927.21 250.31,927.21 296.87,1037.15 282.12,1037.15 "
           id="polygon106"
           style="fill:#09537e" /><path
           class="st1"
           d="m 248.19,930.41 43.84,103.55 -7.79,0 -43.84,-103.55 7.79,0 m 4.24,-6.4 -4.24,0 -7.79,0 -9.66,0 3.77,8.9 43.84,103.55 1.65,3.9 4.24,0 7.79,0 9.66,0 -3.77,-8.9 -43.84,-103.55 -1.65,-3.9 0,0 z"
           id="path108"
           inkscape:connector-curvature="0"
           style="fill:#09537e" /></g><g
         id="g110"><polygon
           class="st1"
           points="552.28,995.04 624.81,1078.01 624.81,1106.14 552.28,1023.17 "
           id="polygon112"
           style="fill:#09537e" /><path
           class="st1"
           d="m 555.48,1003.56 66.13,75.65 0,18.41 -66.13,-75.65 0,-18.41 m -6.4,-17.05 0,17.05 0,18.41 0,2.4 1.58,1.81 66.13,75.65 11.22,12.83 0,-17.05 0,-18.41 0,-2.4 -1.58,-1.81 -66.13,-75.65 -11.22,-12.83 0,0 z"
           id="path114"
           inkscape:connector-curvature="0"
           style="fill:#09537e" /></g><g
         id="g116"><rect
           x="529.73999"
           y="1073.97"
           class="st1"
           width="28.940001"
           height="24.809999"
           id="rect118"
           style="fill:#09537e" /><path
           class="st1"
           d="m 555.48,1077.17 0,18.41 -22.54,0 0,-18.41 22.54,0 m 6.4,-6.4 -6.4,0 -22.54,0 -6.4,0 0,6.4 0,18.41 0,6.4 6.4,0 22.54,0 6.4,0 0,-6.4 0,-18.41 0,-6.4 0,0 z"
           id="path120"
           inkscape:connector-curvature="0"
           style="fill:#09537e" /></g><g
         id="g122"><path
           class="st1"
           d="m 40.03,1049.06 0,-24.81 10.42,0 c 13.08,0 23.59,-3.39 31.24,-10.07 5.54,-4.84 9.11,-11.05 10.61,-18.47 l 3.11,-15.41 3.16,15.4 c 0.64,3.12 0.97,6.4 0.97,9.72 0,13.32 -4.59,24.08 -13.64,31.98 -8.85,7.73 -20.78,11.65 -35.45,11.65 l -10.42,0 z"
           id="path124"
           inkscape:connector-curvature="0"
           style="fill:#09537e" /><path
           class="st1"
           d="m 95.43,996.35 c 0.59,2.89 0.9,5.91 0.9,9.08 0,12.36 -4.22,22.31 -12.54,29.57 -8.25,7.2 -19.47,10.86 -33.34,10.86 l -7.22,0 0,-18.41 7.22,0 c 13.87,0 25.09,-3.65 33.34,-10.86 6.11,-5.33 10,-12.12 11.64,-20.24 m -0.05,-32.07 -6.22,30.81 c -1.37,6.8 -4.51,12.26 -9.58,16.69 -7.05,6.16 -16.85,9.28 -29.13,9.28 l -7.22,0 -6.4,0 0,6.4 0,18.41 0,6.4 6.4,0 7.22,0 c 15.47,0 28.1,-4.18 37.55,-12.44 9.78,-8.54 14.73,-20.11 14.73,-34.39 0,-3.54 -0.35,-7.03 -1.03,-10.37 l -6.32,-30.79 0,0 z"
           id="path126"
           inkscape:connector-curvature="0"
           style="fill:#09537e" /></g><g
         id="g128"><rect
           x="16.799999"
           y="1076.85"
           class="st1"
           width="29.629999"
           height="24.809999"
           id="rect130"
           style="fill:#09537e" /><path
           class="st1"
           d="m 43.23,1080.05 0,18.41 -23.23,0 0,-18.41 23.23,0 m 6.4,-6.4 -6.4,0 -23.23,0 -6.4,0 0,6.4 0,18.41 0,6.4 6.4,0 23.23,0 6.4,0 0,-6.4 0,-18.41 0,-6.4 0,0 z"
           id="path132"
           inkscape:connector-curvature="0"
           style="fill:#09537e" /></g><g
         id="g134"><path
           class="st1"
           d="m 68.86,997.78 c -2.85,-5.05 -9.92,-7.61 -21.02,-7.61 l -7.82,0 0,-24.81 7.82,0 c 19.33,0 29.13,7.2 29.13,21.41 0,4.19 -0.84,7.88 -2.51,10.96 l -2.75,5.1 -2.85,-5.05 z"
           id="path136"
           inkscape:connector-curvature="0"
           style="fill:#09537e" /><path
           class="st1"
           d="m 47.85,968.57 c 17.45,0 25.93,5.96 25.93,18.21 0,3.7 -0.72,6.83 -2.12,9.44 -3.5,-6.19 -11.35,-9.24 -23.8,-9.24 l -4.62,0 0,-18.41 4.61,0 m 0,-6.4 -4.62,0 -6.4,0 0,6.4 0,18.41 0,6.4 6.4,0 4.62,0 c 9.85,0 15.99,2.01 18.23,5.99 l 5.7,10.09 5.51,-10.19 c 1.92,-3.55 2.89,-7.75 2.89,-12.48 0,-10.34 -4.97,-16.01 -9.14,-18.94 -5.44,-3.83 -13.03,-5.68 -23.19,-5.68 l 0,0 z"
           id="path138"
           inkscape:connector-curvature="0"
           style="fill:#09537e" /></g><g
         id="g140"><linearGradient
           id="SVGID_1_"
           gradientUnits="userSpaceOnUse"
           x1="483.33759"
           y1="1053.0938"
           x2="483.33759"
           y2="960.37109"><stop
             offset="0"
             style="stop-color:#F82154"
             id="stop143" /><stop
             offset="1"
             style="stop-color:#FF6A6E"
             id="stop145" /></linearGradient><path
           class="st2"
           d="m 483.38,1053.09 c -4.58,0 -9,-0.58 -13.16,-1.71 -7.52,-2.05 -14.29,-5.99 -20.12,-11.71 -6.62,-6.58 -10.85,-14.37 -12.6,-23.18 -0.62,-3.15 -0.94,-6.45 -0.94,-9.8 0,-13.08 4.58,-24.21 13.63,-33.07 9.09,-8.79 20.37,-13.25 33.53,-13.25 13.08,0 24.2,4.55 33.07,13.54 8.85,8.84 13.34,20.1 13.34,33.45 0,3.27 -0.32,6.48 -0.94,9.55 -1.76,8.64 -6.03,16.32 -12.69,22.85 -5.84,5.73 -12.64,9.66 -20.2,11.68 -4.1,1.1 -8.44,1.65 -12.92,1.65 z m -17.96,-33.14 c 0.74,1.28 1.61,2.46 2.6,3.52 3.55,3.81 8.08,5.82 13.84,6.13 l 0.38,0.02 c 0.37,0.02 0.75,0.04 1.13,0.04 6.34,0 11.31,-2.03 15.19,-6.19 2.2,-2.37 3.8,-5.22 4.76,-8.47 0.73,-2.46 1.09,-5.15 1.09,-7.98 0,-7.4 -1.86,-13.04 -5.7,-17.21 -1.26,-1.36 -2.74,-2.53 -4.38,-3.48 -3.09,-1.79 -6.78,-2.7 -10.97,-2.7 -4.4,0 -8.24,0.98 -11.41,2.91 -1.51,0.92 -2.8,1.97 -3.95,3.2 -0.91,0.98 -1.72,2.05 -2.42,3.21 l 19.29,0 0,27 -19.45,0 z"
           id="path147"
           style="fill:url(#SVGID_1_)"
           inkscape:connector-curvature="0" /><path
           class="st3"
           d="m 483.72,963.57 c 12.25,0 22.51,4.19 30.79,12.58 8.28,8.28 12.42,18.68 12.42,31.21 0,3.09 -0.3,6.06 -0.88,8.91 -1.63,8.03 -5.56,15.1 -11.79,21.2 -5.48,5.37 -11.75,8.99 -18.79,10.88 -3.8,1.02 -7.82,1.54 -12.08,1.54 -4.34,0 -8.44,-0.54 -12.32,-1.6 -7,-1.91 -13.25,-5.54 -18.72,-10.9 -6.18,-6.14 -10.08,-13.32 -11.7,-21.52 -0.58,-2.93 -0.88,-5.99 -0.88,-9.18 0,-12.25 4.22,-22.51 12.67,-30.79 8.49,-8.22 18.92,-12.33 31.28,-12.33 m -23.1,32.58 21.07,0 0,2.76 0,15.65 0,2.19 -21.17,0 c 1.1,3.41 2.82,6.38 5.16,8.9 4.12,4.43 9.47,6.79 16.01,7.14 0.56,0.03 1.11,0.07 1.69,0.07 7.21,0 13.06,-2.41 17.53,-7.21 2.58,-2.78 4.4,-6.04 5.49,-9.74 0.8,-2.72 1.22,-5.66 1.22,-8.88 0,-8.17 -2.18,-14.63 -6.54,-19.38 -1.54,-1.65 -3.26,-3 -5.13,-4.09 -3.58,-2.07 -7.76,-3.13 -12.57,-3.13 -5.06,0 -9.41,1.15 -13.08,3.38 -1.68,1.02 -3.23,2.26 -4.62,3.75 -2.27,2.44 -3.95,5.31 -5.06,8.59 m 23.1,-38.98 c -14.02,0 -26.04,4.75 -35.74,14.13 -9.71,9.52 -14.62,21.41 -14.62,35.39 0,3.57 0.34,7.07 1,10.43 1.87,9.45 6.41,17.8 13.47,24.82 6.26,6.13 13.5,10.34 21.55,12.54 4.43,1.21 9.14,1.82 14,1.82 4.76,0 9.38,-0.59 13.73,-1.76 8.1,-2.17 15.37,-6.37 21.62,-12.49 7.12,-6.98 11.69,-15.23 13.58,-24.5 0.67,-3.28 1.01,-6.71 1.01,-10.19 0,-14.23 -4.81,-26.25 -14.29,-35.73 -9.46,-9.58 -21.35,-14.46 -35.31,-14.46 l 0,0 z m -10.82,32.58 c 0.24,-0.16 0.48,-0.32 0.74,-0.47 2.7,-1.65 5.89,-2.45 9.75,-2.45 3.66,0 6.73,0.74 9.36,2.27 1.38,0.8 2.58,1.75 3.65,2.91 3.24,3.53 4.83,8.45 4.83,15.02 0,2.52 -0.32,4.9 -0.96,7.07 -0.83,2.81 -2.15,5.16 -4.03,7.19 -3.24,3.48 -7.44,5.17 -12.85,5.17 -0.27,0 -0.58,-0.02 -0.95,-0.04 l -0.39,-0.02 c -3.83,-0.2 -7,-1.27 -9.62,-3.26 l 9.28,0 6.4,0 0,-6.4 0,-2.19 0,-15.65 0,-2.76 0,-6.4 -6.4,0 -8.81,0 0,0.01 z"
           id="path149"
           inkscape:connector-curvature="0"
           style="fill:#00a4ff" /></g><g
         id="g151"><linearGradient
           id="SVGID_2_"
           gradientUnits="userSpaceOnUse"
           x1="144.63651"
           y1="1053.0938"
           x2="144.63651"
           y2="960.37109"><stop
             offset="0"
             style="stop-color:#F82154"
             id="stop154" /><stop
             offset="1"
             style="stop-color:#FF6A6E"
             id="stop156" /></linearGradient><path
           class="st4"
           d="m 144.26,1053.09 c -4.56,0 -8.96,-0.57 -13.08,-1.7 -7.55,-2.06 -14.27,-6.05 -19.99,-11.84 -6.5,-6.5 -10.67,-14.36 -12.4,-23.36 -0.62,-3.23 -0.94,-6.63 -0.94,-10.1 0,-12.64 4.58,-23.54 13.63,-32.4 9.02,-8.85 20.16,-13.33 33.11,-13.33 13,0 24.2,4.51 33.28,13.42 8.99,8.93 13.54,20.03 13.54,32.99 0,3.38 -0.32,6.69 -0.94,9.85 -1.76,8.88 -6.02,16.7 -12.69,23.23 -5.59,5.41 -12.05,9.2 -19.22,11.29 -4.47,1.29 -9.28,1.95 -14.3,1.95 z m 0.33,-69.29 c -3.99,0 -7.53,0.84 -10.52,2.51 -1.71,0.96 -3.29,2.2 -4.67,3.68 -3.94,4.23 -5.85,9.61 -5.85,16.44 0,3.12 0.37,6.03 1.11,8.67 0.94,3.37 2.48,6.25 4.59,8.54 3.86,4.15 8.89,6.18 15.34,6.18 0.39,0 0.77,-0.02 1.15,-0.04 l 0.37,-0.02 c 5.81,-0.3 10.34,-2.28 13.84,-6.04 1.17,-1.26 2.17,-2.68 2.99,-4.22 l -19.86,0 0,-27 18.85,0 c -0.59,-0.89 -1.25,-1.73 -1.98,-2.51 -1.35,-1.45 -2.9,-2.67 -4.6,-3.63 -3.04,-1.7 -6.66,-2.56 -10.76,-2.56 z"
           id="path158"
           style="fill:url(#SVGID_2_)"
           inkscape:connector-curvature="0" /><path
           class="st3"
           d="m 144.59,963.57 c 12.19,0 22.54,4.17 31.04,12.5 8.39,8.33 12.58,18.57 12.58,30.7 0,3.21 -0.3,6.29 -0.88,9.23 -1.63,8.27 -5.56,15.46 -11.79,21.56 -5.23,5.06 -11.19,8.55 -17.88,10.5 -4.19,1.22 -8.66,1.83 -13.41,1.83 -4.33,0 -8.4,-0.53 -12.23,-1.58 -7.01,-1.92 -13.2,-5.58 -18.55,-11 -6.09,-6.09 -9.93,-13.33 -11.54,-21.71 -0.58,-3.02 -0.88,-6.18 -0.88,-9.49 0,-11.8 4.22,-21.84 12.67,-30.12 8.45,-8.28 18.74,-12.42 30.87,-12.42 m 0,69.46 c 0.58,0 1.13,-0.04 1.69,-0.07 6.59,-0.34 11.94,-2.68 16.01,-7.06 2.5,-2.69 4.29,-5.89 5.38,-9.6 l -21.39,0 0,-2.19 0,-15.03 0,-3.37 20.82,0 c -1.1,-2.99 -2.7,-5.62 -4.81,-7.89 -1.61,-1.73 -3.41,-3.13 -5.38,-4.24 -3.52,-1.97 -7.62,-2.97 -12.32,-2.97 -4.58,0 -8.6,0.98 -12.08,2.92 -2,1.11 -3.82,2.54 -5.45,4.3 -4.47,4.81 -6.71,11.02 -6.71,18.62 0,3.5 0.42,6.66 1.22,9.53 1.07,3.84 2.82,7.13 5.32,9.85 4.48,4.8 10.38,7.2 17.7,7.2 m 0,-75.86 c -13.81,0 -25.71,4.79 -35.35,14.24 -9.68,9.49 -14.59,21.16 -14.59,34.69 0,3.67 0.33,7.27 0.99,10.7 1.85,9.64 6.32,18.06 13.3,25.03 6.09,6.17 13.29,10.44 21.39,12.65 4.39,1.2 9.07,1.81 13.92,1.81 5.32,0 10.44,-0.7 15.2,-2.09 7.68,-2.23 14.59,-6.29 20.54,-12.04 7.16,-7.02 11.73,-15.39 13.62,-24.92 0.66,-3.36 1,-6.88 1,-10.47 0,-13.85 -4.87,-25.7 -14.47,-35.24 -9.73,-9.54 -21.68,-14.36 -35.55,-14.36 l 0,0 z m 0,69.46 c -5.52,0 -9.78,-1.69 -13.01,-5.17 -1.76,-1.92 -3.03,-4.29 -3.84,-7.21 -0.66,-2.36 -0.99,-4.98 -0.99,-7.81 0,-5.98 1.63,-10.65 5,-14.26 1.17,-1.26 2.44,-2.26 3.89,-3.07 2.54,-1.42 5.47,-2.11 8.96,-2.11 3.59,0 6.6,0.71 9.19,2.16 0.09,0.05 0.17,0.1 0.26,0.15 l -7.76,0 -6.4,0 0,6.4 0,3.37 0,15.03 0,2.19 0,6.4 6.4,0 10.13,0 c -2.73,2.38 -6.17,3.65 -10.46,3.87 l -0.4,0.02 c -0.38,0.02 -0.7,0.04 -0.97,0.04 l 0,0 z"
           id="path160"
           inkscape:connector-curvature="0"
           style="fill:#00a4ff" /></g><g
         id="g162"><linearGradient
           id="SVGID_3_"
           gradientUnits="userSpaceOnUse"
           x1="313.97879"
           y1="1112.5234"
           x2="313.97879"
           y2="908.7998"><stop
             offset="0"
             style="stop-color:#F82154"
             id="stop165" /><stop
             offset="1"
             style="stop-color:#FF6A6E"
             id="stop167" /></linearGradient><path
           class="st5"
           d="m 295.81,1112.52 0,-58.39 -104.74,0 0,-109.77 23.38,0 0,86.39 72.76,0 -51.64,-121.95 151.75,0 -23.9,56.45 24.08,24.08 49.36,-49.36 0.03,21.08 0,93.1 -88.79,-0.17 0,0.15 -21.03,0 0,58.39 -31.26,0 z m 117.7,-81.77 0,-34.42 -26.01,26.01 -33.9,-33.9 -17.92,42.32 77.83,0 z m -102.07,-22.97 28.74,-67.72 -57.52,0 28.78,67.72 z"
           id="path169"
           style="fill:url(#SVGID_3_)"
           inkscape:connector-curvature="0" /><path
           class="st3"
           d="m 382.49,912 -7.79,18.41 -15.07,35.58 5.48,5.48 22.4,22.4 46.17,-46.17 0.02,13.37 0,18.41 0,71.49 -16.98,-0.03 -71.8,-0.14 0,0.16 -13.45,0 -7.58,0 0,18.41 0,39.98 -24.86,0 0,-39.98 0,-18.41 -7.58,0 -80.19,0 -16.98,0 0,-84.97 0,-18.41 16.98,0 0,18.41 0,67.99 72.99,0 7.79,0 -43.84,-103.55 -7.8,-18.43 26.86,0 3.7,0 111.53,0 m -71.05,103.97 25.76,-60.7 7.81,-18.41 -67.19,0 7.82,18.41 25.8,60.7 m 19.41,17.98 7.79,0 0.74,0 5.52,0 40.33,0 4.53,0 26.94,0 0,-26.94 0,-18.41 -29.21,29.21 -35,-35 -21.64,51.14 m 61.3,-128.35 -9.66,0 -111.53,0 -3.7,0 -26.86,0 -9.66,0 3.77,8.9 7.79,18.41 40.08,94.65 -64.73,0 0,-61.59 0,-18.41 0,-6.4 -6.4,0 -16.98,0 -6.4,0 0,6.4 0,18.41 0,84.97 0,6.4 6.4,0 16.98,0 80.19,0 1.18,0 0,12.01 0,39.98 0,6.4 6.4,0 24.86,0 6.4,0 0,-6.4 0,-39.98 0,-12.01 1.18,0 13.45,0 6.4,0 0,-0.14 65.39,0.13 16.98,0.03 6.41,0.01 0,-6.41 0,-71.49 0,-18.41 -0.02,-13.38 -0.02,-15.42 -10.9,10.9 -41.64,41.65 -17.87,-17.87 -2.43,-2.43 13.38,-31.61 7.79,-18.41 3.77,-8.89 0,0 z m -104.65,37.66 47.85,0 -4.04,9.51 -19.87,46.82 -19.9,-46.83 -4.04,-9.5 0,0 z m 53.01,84.29 14.18,-33.5 28.28,28.28 4.53,4.53 4.53,-4.53 18.28,-18.28 0,2.96 0,20.54 -20.54,0 -4.53,0 -40.34,0 -4.39,0 0,0 z"
           id="path171"
           inkscape:connector-curvature="0"
           style="fill:#00a4ff" /></g><g
         id="g173"><linearGradient
           id="SVGID_4_"
           gradientUnits="userSpaceOnUse"
           x1="577.271"
           y1="1087.7334"
           x2="577.271"
           y2="939.21088"><stop
             offset="0"
             style="stop-color:#F82154"
             id="stop176" /><stop
             offset="1"
             style="stop-color:#FF6A6E"
             id="stop178" /></linearGradient><polygon
           class="st6"
           points="595.87,946.51 624.81,946.51 624.81,1087.73 558.68,1012.08 558.68,1080.37 529.74,1080.37 529.74,939.21 595.87,1014.34 "
           id="polygon180"
           style="fill:url(#SVGID_4_)" /><path
           class="st3"
           d="m 532.94,947.69 66.13,75.13 0,-54.7 0,-18.41 22.54,0 0,18.41 0,111.09 -66.13,-75.65 0,18.41 0,55.2 -22.54,0 0,-111.07 0,-18.41 m -6.4,-16.96 0,16.96 0,18.41 0,111.07 0,6.4 6.4,0 22.54,0 6.4,0 0,-6.4 0,-55.2 0,-1.36 54.91,62.82 11.22,12.83 0,-17.05 0,-111.09 0,-18.41 0,-6.4 -6.4,0 -22.54,0 -6.4,0 0,6.4 0,18.41 0,37.74 -54.93,-62.4 -11.2,-12.73 0,0 z"
           id="path182"
           inkscape:connector-curvature="0"
           style="fill:#00a4ff" /></g><g
         id="g184"><linearGradient
           id="SVGID_5_"
           gradientUnits="userSpaceOnUse"
           x1="58.164799"
           y1="1083.2539"
           x2="58.164799"
           y2="943.64752"><stop
             offset="0"
             style="stop-color:#F82154"
             id="stop187" /><stop
             offset="1"
             style="stop-color:#FF6A6E"
             id="stop189" /></linearGradient><path
           class="st7"
           d="m 16.8,1083.25 0,-139.6 27.19,0 c 11.25,0 19.97,0.82 25.91,2.44 6.41,1.73 12.12,5.04 16.98,9.83 8.4,8.21 12.66,18.67 12.66,31.1 0,3.44 -0.32,6.8 -0.96,9.96 -1.78,8.83 -6.05,16.24 -12.67,22.02 -8.85,7.73 -20.77,11.65 -35.45,11.65 l -4.02,0 0,52.6 -29.64,0 z m 31.89,-80.8 c 10.73,0 17.33,-2.54 20.15,-7.76 1.15,-2.14 1.74,-4.8 1.74,-7.92 0,-13.3 -12.15,-15.01 -22.73,-15.01 l -1.42,0 0,30.69 2.26,0 z"
           id="path191"
           style="fill:url(#SVGID_5_)"
           inkscape:connector-curvature="0" /><path
           class="st3"
           d="m 43.99,946.85 c 10.96,0 19.4,0.78 25.06,2.33 5.87,1.59 11.11,4.62 15.57,9.02 7.76,7.59 11.7,17.29 11.7,28.83 0,3.28 -0.31,6.39 -0.9,9.33 -1.64,8.12 -5.53,14.91 -11.64,20.25 -8.25,7.2 -19.47,10.86 -33.34,10.86 l -7.22,0 0,18.41 0,34.19 -23.22,0 0,-114.8 0,-18.41 23.99,0 m -0.76,58.79 5.46,0 c 11.96,0 19.55,-3.12 22.96,-9.44 1.41,-2.6 2.12,-5.73 2.12,-9.44 0,-12.25 -8.48,-18.21 -25.93,-18.21 l -4.62,0 0,18.41 0,18.68 m 0.77,-65.2 -23.99,0 -6.4,0 0,6.4 0,18.41 0,114.8 0,6.4 6.4,0 23.23,0 6.4,0 0,-6.4 0,-34.19 0,-12.01 0.82,0 c 15.47,0 28.1,-4.18 37.55,-12.44 7.17,-6.26 11.78,-14.27 13.71,-23.8 0.68,-3.37 1.03,-6.94 1.03,-10.6 0,-13.32 -4.59,-24.56 -13.63,-33.4 -5.23,-5.17 -11.43,-8.75 -18.38,-10.62 -6.21,-1.69 -15.21,-2.55 -26.74,-2.55 l 0,0 z m 5.64,58.8 0,-12.27 0,-11.99 c 17.75,0.46 17.75,7.79 17.75,11.79 0,2.58 -0.46,4.73 -1.36,6.39 -2.11,3.9 -7.62,5.94 -16.39,6.08 l 0,0 z"
           id="path193"
           inkscape:connector-curvature="0"
           style="fill:#00a4ff" /></g></g></g></svg>